<svg width="14" height="10" viewBox="0 0 14 10" fill="none" xmlns="http://www.w3.org/2000/svg">
<path fill-rule="evenodd" clip-rule="evenodd" d="M2.47584 0.5C1.88438 0.5 1.31714 0.658035 0.898913 0.93934C0.480685 1.22064 0.245728 1.60218 0.245728 2V8C0.245728 8.39782 0.480685 8.77936 0.898913 9.06066C1.31714 9.34196 1.88438 9.5 2.47584 9.5H11.3963C11.9878 9.5 12.555 9.34196 12.9732 9.06066C13.3915 8.77936 13.6264 8.39782 13.6264 8V2C13.6264 1.60218 13.3915 1.22064 12.9732 0.93934C12.555 0.658035 11.9878 0.5 11.3963 0.5H2.47584ZM11.3963 1.5H2.47584C2.27869 1.5 2.08961 1.55268 1.9502 1.64645C1.81079 1.74021 1.73247 1.86739 1.73247 2V8C1.73247 8.13261 1.81079 8.25979 1.9502 8.35355C2.08961 8.44732 2.27869 8.5 2.47584 8.5H11.3963C11.5935 8.5 11.7825 8.44732 11.9219 8.35355C12.0613 8.25979 12.1397 8.13261 12.1397 8V2C12.1397 1.86739 12.0613 1.74021 11.9219 1.64645C11.7825 1.55268 11.5935 1.5 11.3963 1.5Z" fill="#A7A7A7"/>
</svg>
